<svg width="199" height="30" fill="none" xmlns="http://www.w3.org/2000/svg"><path d="M61.036 3.176v19.765h-3.953V6.931h-7.486v16.01h-3.982V3.176h15.42Zm11.853 5.083c3.925 0 6.84 3.303 6.84 7.397 0 4.123-2.915 7.426-6.84 7.426-1.767 0-3.42-.677-4.739-1.807V30h-3.7V8.541h3.7v1.525c1.318-1.13 2.972-1.807 4.739-1.807Zm-.785 11.633c2.27 0 3.925-1.864 3.925-4.236 0-2.343-1.654-4.207-3.925-4.207-2.215 0-3.925 1.864-3.925 4.207 0 2.372 1.71 4.236 3.925 4.236Zm16.704 3.332c-4.066 0-7.318-3.304-7.318-7.398 0-4.123 3.253-7.426 7.318-7.426 4.037 0 7.317 3.303 7.317 7.426 0 4.094-3.28 7.398-7.317 7.398Zm0-3.756c1.99 0 3.56-1.61 3.56-3.642 0-2.061-1.57-3.67-3.56-3.67-2.019 0-3.589 1.609-3.589 3.67 0 2.033 1.57 3.642 3.589 3.642Zm29.698 3.473h-3.757l-1.262-8.188-3.532 8.188h-3.729l-3.477-8.132-1.262 8.132H97.73l2.187-14.4h3.954l4.233 9.995 4.206-9.995h3.953l2.243 14.4Zm8.935.283c-4.065 0-7.318-3.304-7.318-7.398 0-4.123 3.253-7.426 7.318-7.426 3.336 0 6.14 2.259 7.037 5.365h-4.037c-.617-.96-1.794-1.61-3-1.61-2.019 0-3.589 1.61-3.589 3.67 0 2.034 1.57 3.643 3.589 3.643 1.262 0 2.467-.706 3.084-1.722h3.981c-.841 3.162-3.701 5.478-7.065 5.478Zm20.737-14.683v3.755h-4.654v10.645h-3.729V12.297h-4.655V8.54h13.038Zm10.958-.282c3.925 0 6.841 3.303 6.841 7.397 0 4.123-2.916 7.426-6.841 7.426-1.767 0-3.421-.677-4.739-1.807V30h-3.701V8.541h3.701v1.525c1.318-1.13 2.972-1.807 4.739-1.807Zm-.785 11.633c2.271 0 3.925-1.864 3.925-4.236 0-2.343-1.654-4.207-3.925-4.207-2.215 0-3.926 1.864-3.926 4.207 0 2.372 1.711 4.236 3.926 4.236Zm16.704 3.332c-4.066 0-7.318-3.304-7.318-7.398 0-4.123 3.252-7.426 7.318-7.426 4.037 0 7.317 3.303 7.317 7.426 0 4.094-3.28 7.398-7.317 7.398Zm0-3.756c1.99 0 3.56-1.61 3.56-3.642 0-2.061-1.57-3.67-3.56-3.67-2.019 0-3.589 1.609-3.589 3.67 0 2.033 1.57 3.642 3.589 3.642Zm20.721-16.8-2.271 3.812h-3.281l1.739-3.812h3.813Zm-.505 5.873H199v14.4h-3.729v-8.894l-6.813 8.894h-3.701v-14.4h3.701v8.753l6.813-8.753Z" fill="#fff"/><path d="M19.714 0 0 19.854l3.262 3.285a4.671 4.671 0 0 0 3.311 1.379 4.671 4.671 0 0 0 3.31-1.379L26.289 6.614 19.714 0Z" fill="#686D76"/><path d="m26.288 6.614-13.142 13.24 3.263 3.285a4.676 4.676 0 0 0 3.308 1.38 4.648 4.648 0 0 0 3.308-1.38l9.836-9.905-6.573-6.62Z" fill="#FC6736"/><path d="m32.858 13.233 6.572 6.619-.492.496a8.568 8.568 0 0 1-6.08 2.536 8.568 8.568 0 0 1-6.08-2.536l-.488-.492 6.572-6.62-.004-.003Z" fill="#B3B3B3"/></svg>