<svg width="199" height="30" viewBox="0 0 199 30" fill="none" xmlns="http://www.w3.org/2000/svg">
<path d="M61.0358 3.17647V22.9412H57.0826V6.93176H49.5966V22.9412H45.6154V3.17647H61.0358Z" fill="white"/>
<path d="M72.8887 8.25882C76.8139 8.25882 79.7297 11.5624 79.7297 15.6565C79.7297 19.7788 76.8139 23.0824 72.8887 23.0824C71.1223 23.0824 69.4682 22.4047 68.1504 21.2753V30H64.4495V8.54117H68.1504V10.0659C69.4682 8.93647 71.1223 8.25882 72.8887 8.25882ZM72.1036 19.8918C74.3746 19.8918 76.0288 18.0282 76.0288 15.6565C76.0288 13.3129 74.3746 11.4494 72.1036 11.4494C69.8887 11.4494 68.1785 13.3129 68.1785 15.6565C68.1785 18.0282 69.8887 19.8918 72.1036 19.8918Z" fill="white"/>
<path d="M88.8078 23.2235C84.7425 23.2235 81.4902 19.92 81.4902 15.8259C81.4902 11.7035 84.7425 8.4 88.8078 8.4C92.8452 8.4 96.1255 11.7035 96.1255 15.8259C96.1255 19.92 92.8452 23.2235 88.8078 23.2235ZM88.8078 19.4682C90.7985 19.4682 92.3686 17.8588 92.3686 15.8259C92.3686 13.7647 90.7985 12.1553 88.8078 12.1553C86.7892 12.1553 85.2191 13.7647 85.2191 15.8259C85.2191 17.8588 86.7892 19.4682 88.8078 19.4682Z" fill="white"/>
<path d="M118.506 22.9412H114.749L113.487 14.7529L109.955 22.9412H106.226L102.749 14.8094L101.487 22.9412H97.7304L99.9173 8.54117H103.871L108.104 18.5365L112.31 8.54117H116.263L118.506 22.9412Z" fill="white"/>
<path d="M127.441 23.2235C123.376 23.2235 120.123 19.92 120.123 15.8259C120.123 11.7035 123.376 8.4 127.441 8.4C130.777 8.4 133.581 10.6588 134.478 13.7647H130.441C129.824 12.8047 128.647 12.1553 127.441 12.1553C125.422 12.1553 123.852 13.7647 123.852 15.8259C123.852 17.8588 125.422 19.4682 127.441 19.4682C128.703 19.4682 129.908 18.7624 130.525 17.7459H134.506C133.665 20.9082 130.805 23.2235 127.441 23.2235Z" fill="white"/>
<path d="M148.178 8.54117V12.2965H143.524V22.9412H139.795V12.2965H135.14V8.54117H148.178Z" fill="white"/>
<path d="M159.136 8.25882C163.061 8.25882 165.977 11.5624 165.977 15.6565C165.977 19.7788 163.061 23.0824 159.136 23.0824C157.369 23.0824 155.715 22.4047 154.397 21.2753V30H150.696V8.54117H154.397V10.0659C155.715 8.93647 157.369 8.25882 159.136 8.25882ZM158.351 19.8918C160.622 19.8918 162.276 18.0282 162.276 15.6565C162.276 13.3129 160.622 11.4494 158.351 11.4494C156.136 11.4494 154.425 13.3129 154.425 15.6565C154.425 18.0282 156.136 19.8918 158.351 19.8918Z" fill="white"/>
<path d="M175.055 23.2235C170.989 23.2235 167.737 19.92 167.737 15.8259C167.737 11.7035 170.989 8.4 175.055 8.4C179.092 8.4 182.372 11.7035 182.372 15.8259C182.372 19.92 179.092 23.2235 175.055 23.2235ZM175.055 19.4682C177.045 19.4682 178.615 17.8588 178.615 15.8259C178.615 13.7647 177.045 12.1553 175.055 12.1553C173.036 12.1553 171.466 13.7647 171.466 15.8259C171.466 17.8588 173.036 19.4682 175.055 19.4682Z" fill="white"/>
<path d="M195.776 2.66823L193.505 6.48H190.224L191.963 2.66823H195.776ZM195.271 8.54117H199V22.9412H195.271V14.0471L188.458 22.9412H184.757V8.54117H188.458V17.2941L195.271 8.54117Z" fill="white"/>
<path d="M19.7143 0L0 19.8536L3.26249 23.1392C4.14126 24.0221 5.33189 24.518 6.57321 24.518C7.81452 24.518 9.00515 24.0221 9.88392 23.1392L26.2875 6.61428L19.7143 0Z" fill="#686D76"/>
<path d="M26.2875 6.61428L13.1463 19.8536L16.4088 23.1392C16.8432 23.5769 17.3589 23.924 17.9265 24.1609C18.4941 24.3978 19.1025 24.5197 19.7169 24.5197C20.3313 24.5197 20.9397 24.3978 21.5073 24.1609C22.0749 23.924 22.5906 23.5769 23.0249 23.1392L32.8606 13.234L26.2875 6.61428Z" fill="#FC6736"/>
<path d="M32.8581 13.2331L39.4304 19.8518L38.9379 20.3478C37.3254 21.9716 35.1384 22.8839 32.8581 22.8839C30.5777 22.8839 28.3907 21.9716 26.7782 20.3478L26.2895 19.8557L32.8618 13.2369L32.8581 13.2331Z" fill="#B3B3B3"/>
</svg>
